<svg width="18" height="18" viewBox="0 0 18 18" fill="none" xmlns="http://www.w3.org/2000/svg">
<path d="M2.13664 17.6625C2.54617 17.8375 2.99895 17.8851 3.4359 17.7989C3.87285 17.7127 4.2737 17.4969 4.58614 17.1795L8.99989 12.7897L13.4136 17.1795C13.6194 17.3883 13.8646 17.5542 14.135 17.6676C14.4053 17.7811 14.6955 17.8397 14.9886 17.8403C15.29 17.8394 15.5882 17.779 15.8661 17.6625C16.279 17.4954 16.6319 17.2077 16.8788 16.837C17.1256 16.4662 17.255 16.0296 17.2499 15.5842V3.75C17.2487 2.7558 16.8532 1.80267 16.1502 1.09966C15.4472 0.396661 14.4941 0.00119089 13.4999 0L4.49989 0C3.50569 0.00119089 2.55255 0.396661 1.84955 1.09966C1.14655 1.80267 0.751077 2.7558 0.749886 3.75V15.5842C0.745047 16.03 0.874819 16.4668 1.12223 16.8376C1.36965 17.2084 1.72319 17.4959 2.13664 17.6625Z" fill="#309782"/>
</svg>
