<svg width="107" height="209" viewBox="0 0 107 209" fill="none" xmlns="http://www.w3.org/2000/svg">
<path d="M29.958 35.3006C29.958 35.3006 9.21655 127.769 7.86697 133.033C6.51738 138.296 9.41332 138.927 13.2135 138.285C17.0137 137.643 35.4627 134.528 35.4627 134.528C39.4439 134.279 40.572 135.261 40.6265 138.692C40.6265 138.692 31.6703 191.682 31.2231 195.674C30.7759 199.666 33.4949 202.564 36.8382 199.202C40.1814 195.84 50.9992 173.87 50.9992 173.87M32.2015 25.4097C33.0928 17.4257 36.045 17.868 44.1288 16.6813C44.1288 16.6813 86.3652 8.99018 92.8771 7.89064C99.3891 6.79109 99.4861 10.6915 97.9552 14.8667C96.4242 19.042 70.3066 89.4772 68.9584 94.7407C67.6102 100.004 68.3378 101.125 73.311 100.72C73.311 100.72 82.3535 98.0743 86.2436 97.977C90.1336 97.8797 92.6698 99.6896 90.5962 103.957C88.5225 108.223 55.5962 164.701 55.5962 164.701" stroke="#592AFF" stroke-width="15" stroke-linecap="round"/>
</svg>
