<svg width="277" height="454" viewBox="0 0 277 454" fill="none" xmlns="http://www.w3.org/2000/svg">
<g filter="url(#filter0_f_90_4306)">
<path d="M138 206.181C138 207.704 142 351.482 144 423.181" stroke="#FF0403" stroke-width="10" stroke-linecap="round"/>
</g>
<g filter="url(#filter1_f_90_4306)">
<path d="M237 201.592L213.77 423.162" stroke="#FF0403" stroke-width="10" stroke-linecap="round"/>
</g>
<g filter="url(#filter2_f_90_4306)">
<path d="M30 187.255C34 147.255 78 149.256 84 187.255" stroke="#FF0403" stroke-width="10" stroke-linecap="round"/>
</g>
<g filter="url(#filter3_f_90_4306)">
<path d="M138 187.256C144 153.257 184 147.257 192 187.256" stroke="#FF0403" stroke-width="10" stroke-linecap="round"/>
</g>
<g filter="url(#filter4_f_90_4306)">
<path d="M191.512 187.471C201.896 156.47 229.589 154.486 236.512 187.471" stroke="#FF0403" stroke-width="10" stroke-linecap="round"/>
</g>
<g filter="url(#filter5_f_90_4306)">
<path d="M84 187.256C88 151.256 134 151.256 138 187.256" stroke="#FF0403" stroke-width="10" stroke-linecap="round"/>
</g>
<g filter="url(#filter6_f_90_4306)">
<path d="M32 201.555L61.2628 428.939" stroke="#FF0403" stroke-width="10" stroke-linecap="round"/>
</g>
<g filter="url(#filter7_f_90_4306)">
<path d="M87 205L100.447 424" stroke="#FFF3CD" stroke-opacity="0.5" stroke-width="10" stroke-linecap="round"/>
</g>
<g filter="url(#filter8_f_90_4306)">
<path d="M189.996 205L182.446 423.257" stroke="#FFF3CD" stroke-opacity="0.5" stroke-width="10" stroke-linecap="round"/>
</g>
<g filter="url(#filter9_f_90_4306)">
<path d="M210.634 433.738L63.9997 435.898" stroke="#FFF3CD" stroke-opacity="0.5" stroke-width="10" stroke-linecap="round"/>
</g>
<g filter="url(#filter10_f_90_4306)">
<path d="M12.5608 152.471C0.962043 129.274 19.1887 102.761 45.7003 120.989" stroke="#FDC201" stroke-width="10" stroke-linecap="round"/>
</g>
<g filter="url(#filter11_f_90_4306)">
<path d="M60.8587 105.51C49.2599 82.3123 67.4866 55.7999 93.9981 74.0271" stroke="#FDC201" stroke-width="10" stroke-linecap="round"/>
</g>
<g filter="url(#filter12_f_90_4306)">
<path d="M102.036 132.587C77.1814 135.901 80.4954 87.8494 108.664 101.105" stroke="#FDC201" stroke-width="10" stroke-linecap="round"/>
</g>
<g filter="url(#filter13_f_90_4306)">
<path d="M108.665 99.4483C106.908 75.0435 155.06 81.2206 141.804 111.047" stroke="#FDC201" stroke-width="10" stroke-linecap="round"/>
</g>
<g filter="url(#filter14_f_90_4306)">
<path d="M160.441 113.89C199.798 94.4766 186.542 172.353 151.745 132.587" stroke="#FDC201" stroke-width="10" stroke-linecap="round"/>
</g>
<g filter="url(#filter15_f_90_4306)">
<path d="M143.461 108.8C154.388 100.292 159.915 105.074 158.374 115.427" stroke="#FDC201" stroke-width="10" stroke-linecap="round"/>
</g>
<g filter="url(#filter16_f_90_4306)">
<path d="M134.251 46.6086C145.19 21.3149 179.318 18.4523 182.674 52.7199" stroke="#FDC201" stroke-width="10" stroke-linecap="round"/>
</g>
<g filter="url(#filter17_f_90_4306)">
<path d="M95.4082 74.5932C98.6696 65.0716 102.007 62.0898 111.978 62.9944" stroke="#FDC201" stroke-width="10" stroke-linecap="round"/>
</g>
<g filter="url(#filter18_f_90_4306)">
<path d="M216.366 109.436C226.26 111.283 229.694 114.152 230.244 124.149" stroke="#FDC201" stroke-width="10" stroke-linecap="round"/>
</g>
<g filter="url(#filter19_f_90_4306)">
<path d="M110.321 61.3368C110.8 44.8668 125.46 39.7729 133.519 44.9841" stroke="#FDC201" stroke-width="10" stroke-linecap="round"/>
</g>
<g filter="url(#filter20_f_90_4306)">
<path d="M183.229 51.8898C199.706 51.9236 205.194 66.4407 200.202 74.6373" stroke="#FDC201" stroke-width="10" stroke-linecap="round"/>
</g>
<g filter="url(#filter21_f_90_4306)">
<path d="M199.797 75.088C216.894 75.3109 222.742 96.1227 217.649 107.788" stroke="#FDC201" stroke-width="10" stroke-linecap="round"/>
</g>
<g filter="url(#filter22_f_90_4306)">
<path d="M231.28 124.302C246.193 107.732 271.048 129.272 256.135 149.157" stroke="#FDC201" stroke-width="10" stroke-linecap="round"/>
</g>
<g filter="url(#filter23_f_90_4306)">
<path d="M9.2464 77.9062C8.99419 70.0122 10.6603 66.874 20.8452 66.3074C28.7479 65.877 32.444 69.6218 32.444 76.2493C32.444 82.8767 27.4731 87.8485 20.8452 87.848C14.2173 87.8475 9.99219 84.2339 9.2464 77.9062Z" stroke="#FDC201" stroke-width="10" stroke-linecap="round"/>
</g>
<g filter="url(#filter24_f_90_4306)">
<path d="M75.923 14.1193C83.6397 7.69753 88.0664 6.88633 96.471 16.4858C102.983 23.9416 102.074 30.5145 95.4327 35.6972C88.7913 40.8798 79.9841 39.8663 74.8848 33.3306C69.7856 26.7948 70.1558 19.803 75.923 14.1193Z" stroke="#FDC201" stroke-width="10" stroke-linecap="round"/>
</g>
<g filter="url(#filter25_f_90_4306)">
<path d="M242.918 63.8285C250.635 57.4068 255.062 56.5956 263.466 66.1951C269.978 73.6509 269.069 80.2238 262.428 85.4064C255.786 90.589 246.979 89.5755 241.88 83.0398C236.781 76.5041 237.151 69.5122 242.918 63.8285Z" stroke="#FDC201" stroke-width="10" stroke-linecap="round"/>
</g>
<path d="M32 200.555L61.2628 427.939" stroke="#FFCF0C" stroke-width="4" stroke-linecap="round"/>
<path d="M87.2764 205L100.724 424" stroke="white" stroke-width="3.84211" stroke-linecap="round"/>
<path d="M189.996 205L182.446 423.257" stroke="white" stroke-width="3.84211" stroke-linecap="round"/>
<path d="M138 206C138 207.523 142 351.301 144 423" stroke="#FFCF0C" stroke-width="3.80702" stroke-linecap="round"/>
<path d="M237 201.411L213.77 422.981" stroke="#FFCF0C" stroke-width="3.80912" stroke-linecap="round"/>
<path d="M64 436L212 434" stroke="white" stroke-width="4" stroke-linecap="round"/>
<path d="M30.4883 187.784C34.4883 147.784 78.4883 149.785 84.4883 187.784" stroke="#FFCF0C" stroke-width="4" stroke-linecap="round"/>
<path d="M138.488 187.785C144.488 153.786 184.488 147.786 192.488 187.785" stroke="#FFCF0C" stroke-width="4" stroke-linecap="round"/>
<path d="M192 188C202.385 156.999 230.077 155.015 237 188" stroke="#FFCF0C" stroke-width="4" stroke-linecap="round"/>
<path d="M84.4883 187.785C88.4883 151.785 134.488 151.785 138.488 187.785" stroke="#FFCF0C" stroke-width="4" stroke-linecap="round"/>
<path d="M12.5608 152.471C0.962043 129.274 19.1887 102.761 45.7003 120.989" stroke="white" stroke-width="3.31394" stroke-linecap="round"/>
<path d="M60.8587 105.51C49.2599 82.3123 67.4866 55.7999 93.9981 74.0271" stroke="white" stroke-width="3.31394" stroke-linecap="round"/>
<path d="M102.036 132.587C77.1814 135.901 80.4954 87.8494 108.664 101.105" stroke="white" stroke-width="3.31394" stroke-linecap="round"/>
<path d="M108.665 99.4483C106.908 75.0435 155.06 81.2206 141.804 111.047" stroke="white" stroke-width="3.31394" stroke-linecap="round"/>
<path d="M160.441 113.89C199.798 94.4766 186.542 172.353 151.745 132.587" stroke="white" stroke-width="3.31394" stroke-linecap="round"/>
<path d="M143.461 108.8C154.388 100.292 159.915 105.074 158.374 115.427" stroke="white" stroke-width="3.31394" stroke-linecap="round"/>
<path d="M134.251 46.6086C145.19 21.3149 179.318 18.4523 182.674 52.7199" stroke="white" stroke-width="3.31394" stroke-linecap="round"/>
<path d="M95.4082 74.5932C98.6696 65.0716 102.007 62.0898 111.978 62.9944" stroke="white" stroke-width="3.31394" stroke-linecap="round"/>
<path d="M216.366 109.436C226.26 111.283 229.694 114.152 230.244 124.149" stroke="white" stroke-width="3.31394" stroke-linecap="round"/>
<path d="M110.321 61.3368C110.8 44.8668 125.46 39.7729 133.519 44.9841" stroke="white" stroke-width="3.31394" stroke-linecap="round"/>
<path d="M183.229 51.8898C199.706 51.9236 205.194 66.4407 200.202 74.6373" stroke="white" stroke-width="3.31394" stroke-linecap="round"/>
<path d="M199.797 75.088C216.894 75.3109 222.742 96.1227 217.649 107.788" stroke="white" stroke-width="3.31394" stroke-linecap="round"/>
<path d="M231.28 124.302C246.193 107.732 271.048 129.272 256.135 149.157" stroke="white" stroke-width="3.31394" stroke-linecap="round"/>
<path d="M9.2464 77.9062C8.99419 70.0122 10.6603 66.874 20.8452 66.3074C28.7479 65.877 32.444 69.6218 32.444 76.2493C32.444 82.8767 27.4731 87.8485 20.8452 87.848C14.2173 87.8475 9.99219 84.2339 9.2464 77.9062Z" stroke="white" stroke-width="3.31394" stroke-linecap="round"/>
<path d="M75.923 14.1193C83.6397 7.69753 88.0664 6.88633 96.471 16.4858C102.983 23.9416 102.074 30.5145 95.4327 35.6972C88.7913 40.8798 79.9841 39.8663 74.8848 33.3306C69.7856 26.7948 70.1558 19.803 75.923 14.1193Z" stroke="white" stroke-width="3.31394" stroke-linecap="round"/>
<path d="M242.918 63.8285C250.635 57.4068 255.062 56.5956 263.466 66.1951C269.978 73.6509 269.069 80.2238 262.428 85.4064C255.786 90.589 246.979 89.5755 241.88 83.0398C236.781 76.5041 237.151 69.5122 242.918 63.8285Z" stroke="white" stroke-width="3.31394" stroke-linecap="round"/>
<defs>
<filter id="filter0_f_90_4306" x="129" y="197.181" width="24" height="235" filterUnits="userSpaceOnUse" color-interpolation-filters="sRGB">
<feFlood flood-opacity="0" result="BackgroundImageFix"/>
<feBlend mode="normal" in="SourceGraphic" in2="BackgroundImageFix" result="shape"/>
<feGaussianBlur stdDeviation="2" result="effect1_foregroundBlur_90_4306"/>
</filter>
<filter id="filter1_f_90_4306" x="204.77" y="192.591" width="41.2305" height="239.571" filterUnits="userSpaceOnUse" color-interpolation-filters="sRGB">
<feFlood flood-opacity="0" result="BackgroundImageFix"/>
<feBlend mode="normal" in="SourceGraphic" in2="BackgroundImageFix" result="shape"/>
<feGaussianBlur stdDeviation="2" result="effect1_foregroundBlur_90_4306"/>
</filter>
<filter id="filter2_f_90_4306" x="20.9995" y="149" width="72.001" height="47.2556" filterUnits="userSpaceOnUse" color-interpolation-filters="sRGB">
<feFlood flood-opacity="0" result="BackgroundImageFix"/>
<feBlend mode="normal" in="SourceGraphic" in2="BackgroundImageFix" result="shape"/>
<feGaussianBlur stdDeviation="2" result="effect1_foregroundBlur_90_4306"/>
</filter>
<filter id="filter3_f_90_4306" x="128.999" y="150.459" width="72.002" height="45.7971" filterUnits="userSpaceOnUse" color-interpolation-filters="sRGB">
<feFlood flood-opacity="0" result="BackgroundImageFix"/>
<feBlend mode="normal" in="SourceGraphic" in2="BackgroundImageFix" result="shape"/>
<feGaussianBlur stdDeviation="2" result="effect1_foregroundBlur_90_4306"/>
</filter>
<filter id="filter4_f_90_4306" x="182.51" y="154.47" width="63.0024" height="42.0022" filterUnits="userSpaceOnUse" color-interpolation-filters="sRGB">
<feFlood flood-opacity="0" result="BackgroundImageFix"/>
<feBlend mode="normal" in="SourceGraphic" in2="BackgroundImageFix" result="shape"/>
<feGaussianBlur stdDeviation="2" result="effect1_foregroundBlur_90_4306"/>
</filter>
<filter id="filter5_f_90_4306" x="74.9995" y="151.256" width="72.001" height="45.0005" filterUnits="userSpaceOnUse" color-interpolation-filters="sRGB">
<feFlood flood-opacity="0" result="BackgroundImageFix"/>
<feBlend mode="normal" in="SourceGraphic" in2="BackgroundImageFix" result="shape"/>
<feGaussianBlur stdDeviation="2" result="effect1_foregroundBlur_90_4306"/>
</filter>
<filter id="filter6_f_90_4306" x="22.9995" y="192.554" width="47.2637" height="245.385" filterUnits="userSpaceOnUse" color-interpolation-filters="sRGB">
<feFlood flood-opacity="0" result="BackgroundImageFix"/>
<feBlend mode="normal" in="SourceGraphic" in2="BackgroundImageFix" result="shape"/>
<feGaussianBlur stdDeviation="2" result="effect1_foregroundBlur_90_4306"/>
</filter>
<filter id="filter7_f_90_4306" x="78" y="196" width="31.4478" height="237" filterUnits="userSpaceOnUse" color-interpolation-filters="sRGB">
<feFlood flood-opacity="0" result="BackgroundImageFix"/>
<feBlend mode="normal" in="SourceGraphic" in2="BackgroundImageFix" result="shape"/>
<feGaussianBlur stdDeviation="2" result="effect1_foregroundBlur_90_4306"/>
</filter>
<filter id="filter8_f_90_4306" x="173.446" y="196" width="25.5503" height="236.257" filterUnits="userSpaceOnUse" color-interpolation-filters="sRGB">
<feFlood flood-opacity="0" result="BackgroundImageFix"/>
<feBlend mode="normal" in="SourceGraphic" in2="BackgroundImageFix" result="shape"/>
<feGaussianBlur stdDeviation="2" result="effect1_foregroundBlur_90_4306"/>
</filter>
<filter id="filter9_f_90_4306" x="54.9995" y="424.738" width="164.634" height="20.1599" filterUnits="userSpaceOnUse" color-interpolation-filters="sRGB">
<feFlood flood-opacity="0" result="BackgroundImageFix"/>
<feBlend mode="normal" in="SourceGraphic" in2="BackgroundImageFix" result="shape"/>
<feGaussianBlur stdDeviation="2" result="effect1_foregroundBlur_90_4306"/>
</filter>
<filter id="filter10_f_90_4306" x="0.00244141" y="105.926" width="54.6982" height="55.5459" filterUnits="userSpaceOnUse" color-interpolation-filters="sRGB">
<feFlood flood-opacity="0" result="BackgroundImageFix"/>
<feBlend mode="normal" in="SourceGraphic" in2="BackgroundImageFix" result="shape"/>
<feGaussianBlur stdDeviation="2" result="effect1_foregroundBlur_90_4306"/>
</filter>
<filter id="filter11_f_90_4306" x="48.3003" y="58.9648" width="54.6982" height="55.5459" filterUnits="userSpaceOnUse" color-interpolation-filters="sRGB">
<feFlood flood-opacity="0" result="BackgroundImageFix"/>
<feBlend mode="normal" in="SourceGraphic" in2="BackgroundImageFix" result="shape"/>
<feGaussianBlur stdDeviation="2" result="effect1_foregroundBlur_90_4306"/>
</filter>
<filter id="filter12_f_90_4306" x="76.2925" y="89.7866" width="41.3726" height="51.9644" filterUnits="userSpaceOnUse" color-interpolation-filters="sRGB">
<feFlood flood-opacity="0" result="BackgroundImageFix"/>
<feBlend mode="normal" in="SourceGraphic" in2="BackgroundImageFix" result="shape"/>
<feGaussianBlur stdDeviation="2" result="effect1_foregroundBlur_90_4306"/>
</filter>
<filter id="filter13_f_90_4306" x="99.6177" y="75.3694" width="53.498" height="44.6785" filterUnits="userSpaceOnUse" color-interpolation-filters="sRGB">
<feFlood flood-opacity="0" result="BackgroundImageFix"/>
<feBlend mode="normal" in="SourceGraphic" in2="BackgroundImageFix" result="shape"/>
<feGaussianBlur stdDeviation="2" result="effect1_foregroundBlur_90_4306"/>
</filter>
<filter id="filter14_f_90_4306" x="142.745" y="101.73" width="50.748" height="51.3457" filterUnits="userSpaceOnUse" color-interpolation-filters="sRGB">
<feFlood flood-opacity="0" result="BackgroundImageFix"/>
<feBlend mode="normal" in="SourceGraphic" in2="BackgroundImageFix" result="shape"/>
<feGaussianBlur stdDeviation="2" result="effect1_foregroundBlur_90_4306"/>
</filter>
<filter id="filter15_f_90_4306" x="134.461" y="95.4189" width="33.167" height="29.0093" filterUnits="userSpaceOnUse" color-interpolation-filters="sRGB">
<feFlood flood-opacity="0" result="BackgroundImageFix"/>
<feBlend mode="normal" in="SourceGraphic" in2="BackgroundImageFix" result="shape"/>
<feGaussianBlur stdDeviation="2" result="effect1_foregroundBlur_90_4306"/>
</filter>
<filter id="filter16_f_90_4306" x="125.25" y="18.3118" width="66.4248" height="43.4084" filterUnits="userSpaceOnUse" color-interpolation-filters="sRGB">
<feFlood flood-opacity="0" result="BackgroundImageFix"/>
<feBlend mode="normal" in="SourceGraphic" in2="BackgroundImageFix" result="shape"/>
<feGaussianBlur stdDeviation="2" result="effect1_foregroundBlur_90_4306"/>
</filter>
<filter id="filter17_f_90_4306" x="86.4067" y="53.8403" width="34.5713" height="29.7542" filterUnits="userSpaceOnUse" color-interpolation-filters="sRGB">
<feFlood flood-opacity="0" result="BackgroundImageFix"/>
<feBlend mode="normal" in="SourceGraphic" in2="BackgroundImageFix" result="shape"/>
<feGaussianBlur stdDeviation="2" result="effect1_foregroundBlur_90_4306"/>
</filter>
<filter id="filter18_f_90_4306" x="207.365" y="100.435" width="31.8789" height="32.7148" filterUnits="userSpaceOnUse" color-interpolation-filters="sRGB">
<feFlood flood-opacity="0" result="BackgroundImageFix"/>
<feBlend mode="normal" in="SourceGraphic" in2="BackgroundImageFix" result="shape"/>
<feGaussianBlur stdDeviation="2" result="effect1_foregroundBlur_90_4306"/>
</filter>
<filter id="filter19_f_90_4306" x="101.321" y="33.9824" width="41.1982" height="36.3545" filterUnits="userSpaceOnUse" color-interpolation-filters="sRGB">
<feFlood flood-opacity="0" result="BackgroundImageFix"/>
<feBlend mode="normal" in="SourceGraphic" in2="BackgroundImageFix" result="shape"/>
<feGaussianBlur stdDeviation="2" result="effect1_foregroundBlur_90_4306"/>
</filter>
<filter id="filter20_f_90_4306" x="174.229" y="42.8899" width="36.7915" height="40.748" filterUnits="userSpaceOnUse" color-interpolation-filters="sRGB">
<feFlood flood-opacity="0" result="BackgroundImageFix"/>
<feBlend mode="normal" in="SourceGraphic" in2="BackgroundImageFix" result="shape"/>
<feGaussianBlur stdDeviation="2" result="effect1_foregroundBlur_90_4306"/>
</filter>
<filter id="filter21_f_90_4306" x="190.797" y="66.0879" width="37.626" height="50.7012" filterUnits="userSpaceOnUse" color-interpolation-filters="sRGB">
<feFlood flood-opacity="0" result="BackgroundImageFix"/>
<feBlend mode="normal" in="SourceGraphic" in2="BackgroundImageFix" result="shape"/>
<feGaussianBlur stdDeviation="2" result="effect1_foregroundBlur_90_4306"/>
</filter>
<filter id="filter22_f_90_4306" x="222.28" y="109.399" width="47.4546" height="48.7578" filterUnits="userSpaceOnUse" color-interpolation-filters="sRGB">
<feFlood flood-opacity="0" result="BackgroundImageFix"/>
<feBlend mode="normal" in="SourceGraphic" in2="BackgroundImageFix" result="shape"/>
<feGaussianBlur stdDeviation="2" result="effect1_foregroundBlur_90_4306"/>
</filter>
<filter id="filter23_f_90_4306" x="0.221191" y="57.2744" width="41.2227" height="39.5735" filterUnits="userSpaceOnUse" color-interpolation-filters="sRGB">
<feFlood flood-opacity="0" result="BackgroundImageFix"/>
<feBlend mode="normal" in="SourceGraphic" in2="BackgroundImageFix" result="shape"/>
<feGaussianBlur stdDeviation="2" result="effect1_foregroundBlur_90_4306"/>
</filter>
<filter id="filter24_f_90_4306" x="62.3115" y="0.280273" width="47.6006" height="47.718" filterUnits="userSpaceOnUse" color-interpolation-filters="sRGB">
<feFlood flood-opacity="0" result="BackgroundImageFix"/>
<feBlend mode="normal" in="SourceGraphic" in2="BackgroundImageFix" result="shape"/>
<feGaussianBlur stdDeviation="2" result="effect1_foregroundBlur_90_4306"/>
</filter>
<filter id="filter25_f_90_4306" x="229.307" y="49.9895" width="47.6006" height="47.718" filterUnits="userSpaceOnUse" color-interpolation-filters="sRGB">
<feFlood flood-opacity="0" result="BackgroundImageFix"/>
<feBlend mode="normal" in="SourceGraphic" in2="BackgroundImageFix" result="shape"/>
<feGaussianBlur stdDeviation="2" result="effect1_foregroundBlur_90_4306"/>
</filter>
</defs>
</svg>
