<svg width="140" height="218" viewBox="0 0 140 218" fill="none" xmlns="http://www.w3.org/2000/svg">
<g id="Group 18">
<g id="Group 17" filter="url(#filter0_f_136_1431)">
<path id="Vector 1" d="M40.958 40.3006C40.958 40.3006 20.2166 132.769 18.867 138.033C17.5174 143.296 20.4133 143.927 24.2135 143.285C28.0137 142.643 46.4627 139.528 46.4627 139.528C50.4439 139.279 51.572 140.261 51.6265 143.692C51.6265 143.692 42.6703 196.682 42.2231 200.674C41.7759 204.666 44.4949 207.564 47.8382 204.202C51.1814 200.84 61.9992 178.87 61.9992 178.87M43.2015 30.4097C44.0928 22.4257 47.045 22.868 55.1288 21.6813C55.1288 21.6813 97.3652 13.9902 103.877 12.8906C110.389 11.7911 110.486 15.6915 108.955 19.8667C107.424 24.042 81.3066 94.4772 79.9584 99.7407C78.6102 105.004 79.3378 106.125 84.311 105.72C84.311 105.72 93.3535 103.074 97.2436 102.977C101.134 102.88 103.67 104.69 101.596 108.957C99.5225 113.223 66.5962 169.701 66.5962 169.701" stroke="#592AFF" stroke-width="15" stroke-linecap="round"/>
</g>
<g id="Group 16">
<path id="Vector 1_2" d="M40.958 40.3006C40.958 40.3006 20.2166 132.769 18.867 138.033C17.5174 143.296 20.4133 143.927 24.2135 143.285C28.0137 142.643 46.4627 139.528 46.4627 139.528C50.4439 139.279 51.572 140.261 51.6265 143.692C51.6265 143.692 42.6703 196.682 42.2231 200.674C41.7759 204.666 44.4949 207.564 47.8382 204.202C51.1814 200.84 61.9992 178.87 61.9992 178.87M43.2015 30.4097C44.0928 22.4257 47.045 22.868 55.1288 21.6813C55.1288 21.6813 97.3652 13.9902 103.877 12.8906C110.389 11.7911 110.486 15.6915 108.955 19.8667C107.424 24.042 81.3066 94.4772 79.9584 99.7407C78.6102 105.004 79.3378 106.125 84.311 105.72C84.311 105.72 93.3535 103.074 97.2436 102.977C101.134 102.88 103.67 104.69 101.596 108.957C99.5225 113.223 66.5962 169.701 66.5962 169.701" stroke="white" stroke-width="4.5" stroke-linecap="round"/>
</g>
</g>
<defs>
<filter id="filter0_f_136_1431" x="6.64381" y="0.798789" width="115.025" height="216.783" filterUnits="userSpaceOnUse" color-interpolation-filters="sRGB">
<feFlood flood-opacity="0" result="BackgroundImageFix"/>
<feBlend mode="normal" in="SourceGraphic" in2="BackgroundImageFix" result="shape"/>
<feGaussianBlur stdDeviation="2.20129" result="effect1_foregroundBlur_136_1431"/>
</filter>
</defs>
</svg>
