<svg width="20" height="20" viewBox="0 0 20 20" fill="none" xmlns="http://www.w3.org/2000/svg">
<g id="material-symbols-light:error">
<path id="Vector" d="M10 13.7183C10.1456 13.7183 10.2672 13.6692 10.365 13.5708C10.4633 13.4725 10.5125 13.3506 10.5125 13.205C10.5125 13.06 10.4633 12.9383 10.365 12.84C10.2672 12.7417 10.1456 12.6925 10 12.6925C9.85444 12.6925 9.73278 12.7417 9.635 12.84C9.53722 12.9383 9.48806 13.06 9.4875 13.205C9.48694 13.35 9.53611 13.4719 9.635 13.5708C9.73278 13.6692 9.85444 13.7183 10 13.7183ZM9.58333 10.9617H10.4167V5.96167H9.58333V10.9617ZM10.0025 17.5C8.96583 17.5 7.99083 17.3033 7.0775 16.91C6.16472 16.5161 5.37056 15.9817 4.695 15.3067C4.01944 14.6317 3.48472 13.8383 3.09083 12.9267C2.69694 12.015 2.5 11.0403 2.5 10.0025C2.5 8.96472 2.69667 7.98972 3.09 7.0775C3.48333 6.16528 4.01778 5.37111 4.69333 4.695C5.36889 4.01889 6.16222 3.48417 7.07333 3.09083C7.98444 2.6975 8.95917 2.50056 9.9975 2.5C11.0358 2.49945 12.0108 2.69611 12.9225 3.09C13.8342 3.48389 14.6283 4.01833 15.305 4.69333C15.9817 5.36833 16.5164 6.16167 16.9092 7.07333C17.3019 7.985 17.4989 8.95972 17.5 9.9975C17.5011 11.0353 17.3044 12.0103 16.91 12.9225C16.5156 13.8347 15.9811 14.6289 15.3067 15.305C14.6322 15.9811 13.8389 16.5158 12.9267 16.9092C12.0144 17.3025 11.0397 17.4994 10.0025 17.5Z" fill="#EA5651"/>
</g>
</svg>
