<svg width="16" height="16" viewBox="0 0 16 16" fill="none" xmlns="http://www.w3.org/2000/svg">
<path d="M5.66667 7.66667C5.93188 7.66667 6.18624 7.56131 6.37377 7.37377C6.56131 7.18624 6.66667 6.93188 6.66667 6.66667C6.66667 6.40145 6.56131 6.1471 6.37377 5.95956C6.18624 5.77202 5.93188 5.66667 5.66667 5.66667C5.40145 5.66667 5.1471 5.77202 4.95956 5.95956C4.77202 6.1471 4.66667 6.40145 4.66667 6.66667C4.66667 6.93188 4.77202 7.18624 4.95956 7.37377C5.1471 7.56131 5.40145 7.66667 5.66667 7.66667ZM5.51467 10.2227C5.45653 10.1565 5.38587 10.1025 5.30675 10.0638C5.22764 10.0251 5.14164 10.0025 5.05373 9.99725C4.96582 9.99199 4.87774 10.0042 4.79457 10.0332C4.71141 10.0621 4.6348 10.1073 4.56919 10.166C4.50358 10.2248 4.45025 10.2959 4.4123 10.3754C4.37434 10.4549 4.35251 10.5411 4.34806 10.629C4.34361 10.717 4.35663 10.805 4.38637 10.8879C4.41611 10.9708 4.46198 11.0469 4.52133 11.112C4.95918 11.6013 5.49533 11.9926 6.09477 12.2605C6.6942 12.5284 7.34342 12.6668 8 12.6667C8.65658 12.6668 9.30579 12.5284 9.90523 12.2605C10.5047 11.9926 11.0408 11.6013 11.4787 11.112C11.5947 10.98 11.6539 10.8075 11.6434 10.6321C11.6328 10.4567 11.5535 10.2925 11.4226 10.1753C11.2916 10.058 11.1197 9.99724 10.9442 10.0061C10.7687 10.015 10.6038 10.0928 10.4853 10.2227C10.1725 10.5723 9.78949 10.8519 9.36121 11.0433C8.93294 11.2347 8.46909 11.3335 8 11.3333C7.01333 11.3333 6.12667 10.9053 5.51467 10.2227ZM11.3333 6.66667C11.3333 6.93188 11.228 7.18624 11.0404 7.37377C10.8529 7.56131 10.5985 7.66667 10.3333 7.66667C10.0681 7.66667 9.81376 7.56131 9.62623 7.37377C9.43869 7.18624 9.33333 6.93188 9.33333 6.66667C9.33333 6.40145 9.43869 6.1471 9.62623 5.95956C9.81376 5.77202 10.0681 5.66667 10.3333 5.66667C10.5985 5.66667 10.8529 5.77202 11.0404 5.95956C11.228 6.1471 11.3333 6.40145 11.3333 6.66667ZM16 8C16 6.94943 15.7931 5.90914 15.391 4.93853C14.989 3.96793 14.3997 3.08601 13.6569 2.34315C12.914 1.60028 12.0321 1.011 11.0615 0.608964C10.0909 0.206926 9.05058 0 8 0C6.94943 0 5.90914 0.206926 4.93853 0.608964C3.96793 1.011 3.08601 1.60028 2.34315 2.34315C1.60028 3.08601 1.011 3.96793 0.608964 4.93853C0.206926 5.90914 -1.56548e-08 6.94943 0 8C3.16163e-08 10.1217 0.842855 12.1566 2.34315 13.6569C3.84344 15.1571 5.87827 16 8 16C10.1217 16 12.1566 15.1571 13.6569 13.6569C15.1571 12.1566 16 10.1217 16 8ZM1.33333 8C1.33333 6.23189 2.03571 4.5362 3.28595 3.28595C4.5362 2.03571 6.23189 1.33333 8 1.33333C9.76811 1.33333 11.4638 2.03571 12.714 3.28595C13.9643 4.5362 14.6667 6.23189 14.6667 8C14.6667 9.76811 13.9643 11.4638 12.714 12.714C11.4638 13.9643 9.76811 14.6667 8 14.6667C6.23189 14.6667 4.5362 13.9643 3.28595 12.714C2.03571 11.4638 1.33333 9.76811 1.33333 8Z" fill="#4C5158"/>
</svg>
